<svg width="580" height="351" fill="none" xmlns="http://www.w3.org/2000/svg"><g clip-path="url(#a)"><circle cx="92.38" cy="112.14" r="4.06" stroke="#212225" stroke-width="2" stroke-linecap="round"/><path d="M179.668 109.937v-8.033c0-6.962 3.7-13.396 9.705-16.877l45.104-26.143m164.427 74.368v-31.348c0-6.962-3.7-13.396-9.706-16.877l-90.207-52.286a19.345 19.345 0 0 0-19.411 0l-9.782 5.67m-90.13 94.435v-5.278m0-5.684v-6.09m64.553-62.558 15.833-9.177M100.5 161.671l36.945-5.502m77.545-11.549-19.894 2.963m-8.12 1.209-38.163 5.684M209.004 153l-7 1.098m-18.5 2.902 13.5-2.118m79.695 21.405-7.205 11.774m-3.975 6.496-5.714 9.338m40.443-27.608 14.615 23.884m32.074-10.08-6.559-4.466m-12.523-8.526 9.541 6.496m24.968-38.975 19.894 2.963m8.12 1.209 38.163 5.684m11.368 1.693 10.15 1.511m-85.679-4.888 9.624 1.433m28.539 4.251-21.539-3.208" stroke="#3C4249" stroke-width="2" stroke-linecap="round"/><path d="M389.974 133.252v-30.378c0-4.064-2.169-7.818-5.69-9.848l-4.866-2.806m-190.816 43.032v-30.378c0-4.064 2.169-7.818 5.689-9.848l89.318-51.502a11.368 11.368 0 0 1 11.357 0l51.16 29.5m23.954 13.811-14.21-8.193" stroke="#3C4249" stroke-width="2" stroke-linecap="round"/><path d="M287.438 111.868 228.004 172l59.434-93 59.566 93-59.566-60.132ZM259.807 153.4l10.036-10.32h35.322l10.036 10.32h-55.394Zm17.466-17.708 10.296-10.447 10.297 10.446-20.593.001Z" fill="#391919"/><path d="m326.548 140.559 19.987 31.668-58.934-60.377-21.047 21.61m56.663 1.822-25.11-39.788m-2.727-4.32-7.779-12.325-36.305 57.65m9.98 2.38-32.479 33.348 18.286-29.038m20.283 2.949 2.826-2.949h34.947l9.93 10.362h-54.806l3.551-3.706m13.729-14.074 10.187-10.489 10.187 10.488-20.374.001Z" stroke="#DE5846" stroke-width="2" stroke-linecap="round" stroke-linejoin="round"/><path d="M198.181 247.267c1.848-1.935 4.223-5.77 5.355-7.646.222-.367 1.227-2.281 2.72-5.153m23.893-45.695-31.992 21.705m31.822-25.513c-.294-.426-.698-.805-1.197-1.156-2.169-1.523-35.999-24.587-38.252-25.995-2.253-1.408-5.299-1.027-7.65-.764-.776.087-8.377 1.166-18.212 2.574m65.311 25.341c.983 1.425.746 3.37-1.197 6.49-1.783 2.862-13.079 24.778-19.958 38.063m21.155-44.553-9.949 6.49m-25.802 21.689-2.806 1.904m18.708-17.136 5.945-3.877m-55.528-33.821-15.68 2.251" stroke="#3C4249" stroke-width="2" stroke-linecap="round"/><path d="M115.549 166.688s9.074-1.309 20.563-2.963m24.585 121.769 7.851-7.997m11.733-54.889 7.776-5.276m-8.864.762c-.742-1.606-1.808-3.006-3.072-4.019l-6.194-4.962m9.266 8.981c.167.362.318.734.451 1.115.734 2.106.84 4.234.297 5.994l-18.119 58.726c-.449 1.457-1.584 2.326-3.034 2.326-1.336 0-2.813-.762-4.157-2.147l-8.238-8.484m32.8-57.53 26.27-17.136m-11.232 12.186-2.806 1.903m-48.39 57.119-19.595-20.182m-4.581-4.718-7.951-8.189c-1.847-1.902-3.12-5.147-2.961-7.547l3.976-60.162c.086-1.293.415-2.361.978-3.173.674-.972 1.647-1.507 2.74-1.507.884 0 1.764.345 2.614 1.026l4.725 3.785m48.545 102.965c10.65-10.849 25.483-25.967 26.659-27.198 1.848-1.935 4.223-5.769 5.355-7.645.221-.367 1.227-2.282 2.72-5.153m-47.407-34.228-31.148-24.955" stroke="#DE5846" stroke-width="2" stroke-linecap="round"/><path d="m186.504 219-12.5 41.5" stroke="#DE5846" stroke-width="2" stroke-linecap="round" stroke-dasharray="4 4"/><path d="m140.598 246 1.62 6.269 8.801 8.731-.001-.001-8-32.828L160 219.445l-3.779-2.82-13.942 8.143-2.58-9.768m-.392 26-2.421-9.37-10.383 5.051-2.503-2.484 11.819-6.027-8.58-33.17 8.939 6.67 2.068 7.83" stroke="#7E8A9C" stroke-width="2" stroke-linecap="round" stroke-linejoin="round"/><path d="m131 201 12.821 48.428L146.5 252l-12.799-48.976L131 201Z" fill="#808A9A"/><path d="M377.267 247.267c-1.848-1.935-4.223-5.77-5.355-7.646-.222-.367-1.228-2.281-2.721-5.153m-23.893-45.695 31.993 21.705m-31.823-25.513c.294-.426.697-.805 1.197-1.156 2.169-1.523 35.999-24.586 38.253-25.995 2.253-1.408 5.299-1.027 7.65-.764.776.087 8.377 1.166 18.212 2.574m-65.312 25.341c-.983 1.425-.747 3.37 1.197 6.49 1.783 2.862 13.08 24.778 19.959 38.063m-21.156-44.553 9.949 6.49m25.803 21.689 2.806 1.904m-18.709-17.136-5.945-3.877m55.529-33.821c5.023.72 10.424 1.496 15.681 2.252" stroke="#3C4249" stroke-width="2" stroke-linecap="round"/><path d="M459.904 166.688s-9.074-1.309-20.564-2.963m-24.585 121.769-7.852-7.997m-11.733-54.889-7.776-5.276m8.864.762c.742-1.606 1.808-3.006 3.072-4.019l32.056-25.682m-35.128 29.701c-.167.362-.318.734-.451 1.115-.734 2.106-.84 4.234-.297 5.994l18.119 58.726c.45 1.457 1.584 2.326 3.035 2.326 1.336 0 2.812-.762 4.157-2.147l8.238-8.484m-32.801-57.53-26.271-17.136m11.233 12.186 2.806 1.903m48.391 57.119 19.596-20.182m4.581-4.718 7.951-8.189c1.847-1.902 3.12-5.147 2.961-7.547l-3.976-60.162c-.086-1.293-.415-2.361-.978-3.173-.674-.972-1.647-1.507-2.74-1.507-.884 0-1.764.345-2.614 1.026l-14.85 11.897m-38.422 94.853c-10.65-10.849-25.484-25.967-26.659-27.198-1.849-1.935-4.223-5.769-5.356-7.645-.221-.367-1.227-2.282-2.72-5.153" stroke="#DE5846" stroke-width="2" stroke-linecap="round"/><path d="M425.846 251.868c2.173 0 4.919-1.173 8.2-3.498 1.55-1.098 3.219-2.453 5.003-4.062a30.773 30.773 0 0 0 1.249-1.253c3.518-3.891 6.379-7.806 8.503-11.636 1.698-3.065 2.932-6.083 3.666-8.97m-14.871-18.081c.14-.828.655-1.505 1.574-2.07.542-.333 6.274-3.768 6.334-3.798.024-.113.792-2.285 2.566-3.735.621-.508 1.183-.765 1.67-.765 1.148 0 1.634 1.431 1.68 2.394.021.439.115 4.366-2.994 7.036-.639.547-1.206.825-1.685.825-1.318.001-1.562-2.121-1.564-2.143l-.675.378c-1.443.807-3.281 1.98-3.507 2.093-.279.14-.421.405-.491.917-.061.449-1.083 7.611-1.173 8.508 4.368-3.804 6.533-3.372 8.031-3.372.549 0 .84.078.843.079l.003-.007c.155-.274 1.557-2.718 2.905-3.91.739-.654 1.454-1.014 2.014-1.014.943 0 1.456.949 1.526 2.821.136 3.658-1.57 6.007-1.587 6.031.016.069.229 1.073.157 2.864m-32.586 16.254c1.837-1.625 3.99-2.053 4.012-2.057.094-.211.963-2.102 2.557-4.613 1.546-2.435 4.111-5.966 7.549-8.961.566-.493 1.267-1.404 1.367-1.92.043-.224.302-2.372.603-4.859l.005-.045c.154-1.277.317-2.627.461-3.799m-19.306 29.865c-.85 1.762-1.086 3.532-.704 5.259.256 1.157.852 2.536 2.236 2.536.534 0 .984-.216 1.109-.283l.005-.003c.001.085.022 1.796.67 3.496.387 1.015.918 1.825 1.578 2.405m13.015-11.818c3.255-1.103 6.71-3.938 8.71-8.651m-11.653-.94c.782 0 1.309.58 1.443 1.59.235 1.778-.848 4.421-2.413 5.893-.69.648-1.404 1.005-2.01 1.005-.751 0-1.271-.543-1.425-1.491-.299-1.831.809-4.548 2.47-6.057.677-.615 1.346-.939 1.935-.94Zm12.056-11.101c.73 0 1.213.629 1.292 1.683.134 1.77-.905 4.29-2.317 5.617-.58.546-1.153.835-1.656.835-.715 0-1.183-.58-1.284-1.591-.182-1.826.882-4.413 2.372-5.766.56-.509 1.111-.778 1.593-.778Z" stroke="#7E8A9C" stroke-width="2" stroke-linecap="round" stroke-linejoin="round"/><path d="m388.004 218 12.5 41" stroke="#DE5846" stroke-width="2" stroke-linecap="round" stroke-dasharray="4 4"/><path d="M334.883 234.467s-11.308-19.332-16.911-28.94m-76.001 28.163s2.557-4.334 5.846-9.885m77.292 62.069-2.548 11.049c-.33 1.428-1.197 2.751-2.443 3.724-1.233.963-2.721 1.494-4.188 1.494h-43.877m54.833-23.976 8.502-36.869c.35-1.515.416-3.044.193-4.422-.228-1.407-.757-2.665-1.531-3.637-1.121-1.409-2.721-2.186-4.504-2.186h-82.565c-1.783 0-3.383.777-4.504 2.186-.774.972-1.303 2.23-1.531 3.637-.224 1.378-.157 2.907.192 4.422l12.347 53.539.481 2.088c.33 1.428 1.197 2.751 2.442 3.724 1.234.963 2.722 1.494 4.189 1.494h5.363" stroke="#DE5846" stroke-width="2" stroke-linecap="round" stroke-linejoin="round"/><path d="M281.943 276.066c.451.267 2.777 1.56 5.557 3.104m-12-8.17 6.284-3.381m-2.284 16.845c-.229-.043-.505-.336-.805-.897-.792-1.484-4.435-8.829-4.83-9.767-.396-.938-1.03-1.641-2.139-1.953-1.108-.313-8.632-2.423-10.849-2.892-2.218-.468-2.772-2.422 0-3.203 2.771-.782 46.567-15.706 51.398-17.269 4.83-1.562 5.306.938 4.276 3.595-.432 1.115-2.608 6.429-5.076 12.422M279.5 284.464c.376.069.621-.541.621-1.756 0-1.954.317-4.767.317-6.095 0-1.328.396-1.954 1.346-2.579.95-.625 20.591-16.018 21.383-16.565.792-.547.158-1.406-1.188-.703-.653.341-7.364 3.949-14.479 7.777m-8 19.921 8-5.294m0 0c4.538 2.521 10.288 5.71 11.074 6.194 1.267.782 3.643 1.329 4.831-1.406.456-1.05 2.347-5.6 4.563-10.958" stroke="#7E8A9C" stroke-width="2" stroke-linecap="round" stroke-linejoin="round"/><path d="M248.969 230.69s7.743-13.639 11.032-19.19m50.969-8.973c1.752 3.004 4.06 6.957 6.407 10.973m2.624 4.49 3.221 5.51m2.339 4 1.754 3" stroke="#DE5846" stroke-width="2" stroke-linecap="round" stroke-linejoin="round"/><path d="M254.374 212.763c-1.317 2.21-2.692 4.524-4.026 6.773m65.495-17.663c-.519-.892-.847-1.46-.925-1.601a5.636 5.636 0 0 0-2.224-2.376 5.537 5.537 0 0 0-3.151-.733H267.31c-2.092 0-3.898 1.018-5.375 3.109-.462.653-2.586 4.165-5.288 8.683" stroke="#3C4249" stroke-width="2" stroke-linecap="round" stroke-linejoin="round"/><path d="M398.904 133.252c0 2.69-1.999 4.871-4.465 4.871-2.467 0-4.466-2.181-4.466-4.871m-201.369 0c0 2.69-2 4.871-4.466 4.871-2.467 0-4.466-2.181-4.466-4.871m292.855-62.329v6.563a9.743 9.743 0 0 1-4.872 8.438L446.81 97.96a9.744 9.744 0 0 1-9.744 0l-20.845-12.035a9.743 9.743 0 0 1-4.872-8.438v-16.1m61.178 6.724v-4.688" stroke="#3C4249" stroke-width="2" stroke-linecap="round"/><path d="M472.527 57.95v-4.534a9.746 9.746 0 0 0-4.872-8.438l-20.846-12.035a9.742 9.742 0 0 0-9.743 0l-2.576 1.487m-23.142 22.737v-3.75a9.743 9.743 0 0 1 4.872-8.44l14.21-8.203M407.429 48.4l-7.308-4.466" stroke="#DE5846" stroke-width="2" stroke-linecap="round"/><path d="m412.708 47.994-11.368-6.902" stroke="#DE5846" stroke-width="2" stroke-linecap="round" stroke-dasharray="4 4"/><path d="M400.935 39.925c0 .842-.232 1.669-.674 2.399a4.96 4.96 0 0 1-1.845 1.762l-5.882 3.251a5.295 5.295 0 0 1-2.56.657c-.9 0-1.783-.227-2.56-.657l-5.882-3.251a4.952 4.952 0 0 1-1.845-1.762 4.62 4.62 0 0 1-.675-2.4v-6.596c0-.842.232-1.67.675-2.4a4.952 4.952 0 0 1 1.845-1.762l5.882-3.251a5.292 5.292 0 0 1 2.56-.657c.899 0 1.783.227 2.56.657l5.882 3.252a4.96 4.96 0 0 1 1.845 1.761 4.63 4.63 0 0 1 .674 2.4v6.597Z" fill="#DE5846" stroke="#DE5846" stroke-width="2" stroke-linecap="round"/><path d="M391.19 31.754h-1.624v4.06h-4.06v1.624h4.06v4.06h1.624v-4.06h4.06v-1.624h-4.06v-4.06Z" fill="#fff"/><path d="M441.965 84.403V69.225c0-1.542-.071-3.188 2.31-4.62 2.381-1.43 13.858-7.918 13.858-7.918a5.6 5.6 0 0 1 .66 2.64v12.208c0 3-.857 4.336-2.31 5.28-1.452.942-10.182 6.083-11.878 6.927-1.697.844-2.64.661-2.64.661Z" fill="#391919"/><path d="m437.654 48.947 1.843-1.061a5.279 5.279 0 0 1 5.269 0l11.558 6.655a5.276 5.276 0 0 1 2.645 4.575v13.285a5.272 5.272 0 0 1-2.645 4.575l-11.559 6.656a5.28 5.28 0 0 1-5.269 0l-11.558-6.655a5.276 5.276 0 0 1-2.645-4.575V59.117a5.282 5.282 0 0 1 2.645-4.575l6.963-4.01" stroke="#DE5846" stroke-width="2" stroke-linecap="round"/><path d="M442.117 83.92v-2.27m0-2.99v-3.84m0-4.17v-2.396a3.963 3.963 0 0 1 1.984-3.431l14.029-8.137" stroke="#DE5846" stroke-width="2" stroke-linecap="round"/><path d="m397.28 92.653 6.902-3.944m-8.12 1.508 3.553-2.03m13.499-4.582-3.045 1.74m1.624-4.06-7.105 4.06M132.997 56.549a9.743 9.743 0 0 0-4.872 8.438v1.856m10.134-13.333 6.09-3.516a9.744 9.744 0 0 1 9.744 0l11.352 6.555a9.743 9.743 0 0 1 4.872 8.438v13.108a9.743 9.743 0 0 1-4.872 8.439l-11.352 6.554a9.744 9.744 0 0 1-9.744 0l-11.352-6.554a9.743 9.743 0 0 1-4.872-8.439v-6.148" stroke="#3C4249" stroke-width="2" stroke-linecap="round"/><path clip-rule="evenodd" d="M145.377 84.086a5.9 5.9 0 0 0 5.9-5.9 5.9 5.9 0 1 0-11.8 0 5.9 5.9 0 0 0 5.9 5.9Z" stroke="#DE5846" stroke-width="2" stroke-linecap="round" stroke-linejoin="round"/><path d="M142.426 78.186a2.95 2.95 0 0 1 2.95-2.95" stroke="#DE5846" stroke-width="2" stroke-linecap="round" stroke-linejoin="round"/><path clip-rule="evenodd" d="M157.175 73.76a4.426 4.426 0 1 0 0-8.852 4.426 4.426 0 0 0 0 8.852Z" stroke="#DBDEE5" stroke-width="2" stroke-linecap="round" stroke-linejoin="round"/><path d="M155.703 69.335c0-.815.661-1.475 1.475-1.475" stroke="#DBDEE5" stroke-width="2" stroke-linecap="round" stroke-linejoin="round"/><path clip-rule="evenodd" d="M144.638 66.385a2.213 2.213 0 1 0 0-4.426 2.213 2.213 0 0 0 0 4.426Z" stroke="#DBDEE5" stroke-width="2" stroke-linecap="round" stroke-linejoin="round"/><path d="m152.508 73.317 1.374-1.032m-.747-4.75-6.381-2.71" stroke="#DBDEE5" stroke-width="2" stroke-linecap="round" stroke-linejoin="round"/><path d="m169.113 84.533 12.528 7.308m-11.309-9.744 6.902 4.026m4.466 2.605 1.624.947m99.15 218.965v2.613c0 4.287-2.287 8.249-6 10.392l-13.667 7.891a12.003 12.003 0 0 1-12 0l-13.666-7.891a11.999 11.999 0 0 1-6-10.392v-15.781c0-4.287 2.287-8.249 6-10.392l6.833-3.946" stroke="#3C4249" stroke-width="2" stroke-linecap="round"/><path d="M246.66 289.153h.756c.417 0 .756.325.756.725v5.08m-1.512 0h3.024m-3.024 13.682h.756c.417 0 .756.325.756.726v5.079m-1.512 0h3.024m9.069-5.805h.756c.418 0 .756.325.756.726v5.079m-1.512 0h3.024m-6.047-1.451c0 .802-.677 1.451-1.511 1.451-.835 0-1.512-.649-1.512-1.451v-2.902c0-.802.677-1.452 1.512-1.452.834 0 1.511.65 1.511 1.452v2.902Zm-6.046-9.744c0 .802-.677 1.451-1.512 1.451s-1.512-.649-1.512-1.451v-2.902c0-.802.677-1.451 1.512-1.451s1.512.649 1.512 1.451v2.902Zm18.14 9.744c0 .802-.677 1.451-1.512 1.451s-1.512-.649-1.512-1.451v-2.902c0-.802.677-1.452 1.512-1.452s1.512.65 1.512 1.452v2.902Z" stroke="#3C4249" stroke-width="2" stroke-linecap="round" stroke-linejoin="round"/><path d="m231.639 290.371-14.616-8.526m1.215-2.436 6.902 4.026m4.466 2.605 1.624.947" stroke="#3C4249" stroke-width="2" stroke-linecap="round"/><path d="M200.028 258.171a8 8 0 0 1 8 0l6.416 3.704a8 8 0 0 1 4 6.928v7.408a8 8 0 0 1-4 6.928l-6.416 3.704a8 8 0 0 1-8 0l-6.415-3.704a8 8 0 0 1-4-6.928v-7.408a8 8 0 0 1 4-6.928l6.415-3.704Z" stroke="#3C4249" stroke-width="2"/><path d="M212.556 275.217a3.958 3.958 0 0 1-1.96 3.418l-4.575 2.671a3.945 3.945 0 0 1-3.982 0l-4.575-2.671a3.966 3.966 0 0 1-1.96-3.418v-5.419a3.961 3.961 0 0 1 1.96-3.418l4.575-2.671a3.946 3.946 0 0 1 3.982 0l4.575 2.671a3.951 3.951 0 0 1 1.96 3.418v5.419Z" fill="#637282"/><path d="m227.98 190.497 10.962-7.552m7.308-5.034-3.248 2.238" stroke="#3C4249" stroke-width="2" stroke-linecap="round"/><path d="m197 248.586 14-12.805m12.333-11.281-7.106 6.5" stroke="#DE5846" stroke-width="2" stroke-linecap="round"/><path d="m237 212-7.5 6.86" stroke="#3C4249" stroke-width="2" stroke-linecap="round"/><path d="m379 249-14-12.95m-12.333-11.408 7.106 6.573" stroke="#DE5846" stroke-width="2" stroke-linecap="round"/><path d="m339 212 7.5 6.938" stroke="#3C4249" stroke-width="2" stroke-linecap="round"/><path d="M142.25 118h-2v-7h-7v-2h7v-7h2v7h7v2h-7v7Zm0 22h-2v-7h-7v-2h7v-7h2v7h7v2h-7v7Zm-22-22h-2v-7h-7v-2h7v-7h2v7h7v2h-7v7Zm0 22h-2v-7h-7v-2h7v-7h2v7h7v2h-7v7Zm-22-22h-2v-7h-7v-2h7v-7h2v7h7v2h-7v7Zm237 205h2v-7h7v-2h-7v-7h-2v7h-7v2h7v7Zm0-22h2v-7h7v-2h-7v-7h-2v7h-7v2h7v7Zm0 44h2v-7h7v-2h-7v-7h-2v7h-7v2h7v7Zm22-22h2v-7h7v-2h-7v-7h-2v7h-7v2h7v7Zm0-22h2v-7h7v-2h-7v-7h-2v7h-7v2h7v7Zm0-21h2v-7h7v-2h-7v-7h-2v7h-7v2h7v7Zm22 43h2v-7h7v-2h-7v-7h-2v7h-7v2h7v7Zm-66.001 0h2v-7h7v-2h-7v-7h-2v7h-7v2h7v7ZM98 80.115h-2v7h-7v2h7v7h2v-7h7v-2h-7v-7Zm-22 0h-2v7h-7v2h7v7h2v-7h7v-2h-7v-7Zm44 0h-2v7h-7v2h7v7h2v-7h7v-2h-7v-7ZM164.25 118h-2v-7h-7v-2h7v-7h2v7h7v2h-7v7Zm0 22h-2v-7h-7v-2h7v-7h2v7h7v2h-7v7Zm-48.514 183.993h2.21v-7.736h7.735v-2.21h-7.735v-7.735h-2.21v7.735H108v2.21h7.736v7.736Zm24.311 0h2.21v-7.736h7.736v-2.21h-7.736v-7.735h-2.21v7.735h-7.735v2.21h7.735v7.736Zm0 24.311h2.21v-7.735h7.736v-2.21h-7.736v-7.736h-2.21v7.736h-7.735v2.21h7.735v7.735Zm24.312-24.311h2.21v-7.736h7.735v-2.21h-7.735v-7.735h-2.21v7.735h-7.736v2.21h7.736v7.736Zm-72.623 0h2.21v-7.736h7.735v-2.21h-7.735v-7.735h-2.21v7.735H84v2.21h7.736v7.736Zm24-24h2.21v-7.736h7.735v-2.21h-7.735v-7.735h-2.21v7.735H108v2.21h7.736v7.736ZM228 16h2V9h7V7h-7V0h-2v7h-7v2h7v7Zm0 22h2v-7h7v-2h-7v-7h-2v7h-7v2h7v7Zm22 0h2v-7h7v-2h-7v-7h-2v7h-7v2h7v7Zm287 131h2v-7h7v-2h-7v-7h-2v7h-7v2h7v7Zm-88-38.115h2v7h7v2h-7v7h-2v-7h-7v-2h7v-7Zm0-22h2v7h7v2h-7v7h-2v-7h-7v-2h7v-7Zm22 22h2v7h7v2h-7v7h-2v-7h-7v-2h7v-7Zm0-22h2v7h7v2h-7v7h-2v-7h-7v-2h7v-7Zm-44 22h2v7h7v2h-7v7h-2v-7h-7v-2h7v-7Zm66 0h2v7h7v2h-7v7h-2v-7h-7v-2h7v-7Zm-285-109h-2v7h-7v2h7v7h2v-7h7v-2h-7v-7Zm0 22h-2v7h-7v2h7v7h2v-7h7v-2h-7v-7Zm0-44h-2v7h-7v2h7v7h2v-7h7v-2h-7v-7Zm-22 22h-2v7h-7v2h7v7h2v-7h7v-2h-7v-7Zm0 22h-2v7h-7v2h7v7h2v-7h7v-2h-7v-7Zm0 21h-2v7h-7v2h7v7h2v-7h7v-2h-7v-7Zm-22-43h-2v7h-7v2h7v7h2v-7h7v-2h-7v-7ZM493.25 168.77h2v-7h7v-2h-7v-7h-2v7h-7v2h7v7Zm0 22h2v-7h7v-2h-7v-7h-2v7h-7v2h7v7Zm22-22h2v-7h7v-2h-7v-7h-2v7h-7v2h7v7Zm-44 0h2v-7h7v-2h-7v-7h-2v7h-7v2h7v7Z" fill="#3C4249"/><path d="M98 59h-2v7h-7v2h7v7h2v-7h7v-2h-7v-7Zm419 72h-2v7h-7v2h7v7h2v-7h7v-2h-7v-7Z" fill="#DE5846"/></g><defs><clipPath id="a"><path fill="#fff" d="M0 0h580v351H0z"/></clipPath></defs></svg>